<?xml version="1.0" encoding="iso-8859-1"?>
<!-- Generator: Adobe Illustrator 19.0.0, SVG Export Plug-In . SVG Version: 6.00 Build 0)  -->
<svg xmlns="http://www.w3.org/2000/svg" xmlns:xlink="http://www.w3.org/1999/xlink" version="1.1" id="Capa_1" x="0px" y="0px" viewBox="0 0 512.001 512.001" style="enable-background:new 0 0 512.001 512.001;" xml:space="preserve" width="512px" height="512px">
<g>
	<g>
		<path d="M368.82,342.126h-50.492c-11.984,0-21.733,9.75-21.733,21.734v45.956c0,11.984,9.75,21.733,21.733,21.733h50.492    c11.984,0,21.733-9.75,21.733-21.733V363.86C390.553,351.876,380.804,342.126,368.82,342.126z M370.554,409.815    c0,0.924-0.811,1.734-1.734,1.734h-50.492c-0.924,0-1.734-0.81-1.734-1.734v-45.956c0-0.924,0.811-1.735,1.734-1.735h50.492    c0.924,0,1.734,0.811,1.734,1.735V409.815z" fill="#FFFFFF"/>
	</g>
</g>
<g>
	<g>
		<path d="M169.309,289.803h-1.115c-5.523,0-10,4.477-10,10c0,5.523,4.477,10,10,10h1.115c5.523,0,10-4.477,10-10    C179.309,294.28,174.832,289.803,169.309,289.803z" fill="#FFFFFF"/>
	</g>
</g>
<g>
	<g>
		<path d="M508.733,254.012l-94.482-95.718c11.436-10.396,18.189-25.256,18.189-41.08c0-30.602-24.896-55.498-55.498-55.498    c-15.53,0-30.207,6.553-40.589,17.661L263.107,5.174c-1.879-1.904-4.442-2.975-7.117-2.975s-5.238,1.071-7.117,2.975    L2.884,254.382c-2.833,2.87-3.665,7.161-2.11,10.882c1.556,3.721,5.194,6.143,9.227,6.143h48.162v228.395c0,5.523,4.477,10,10,10    h375.657c5.523,0,10-4.477,10-10V271.407h48.162c0.007,0,0.014,0,0.02,0c5.523,0,10-4.477,10-10    C512.001,258.477,510.741,255.841,508.733,254.012z M376.941,81.715c19.574,0,35.499,15.924,35.499,35.499    c0,10.403-4.569,20.152-12.26,26.825l-49.755-50.406C357.095,86.156,366.726,81.715,376.941,81.715z M241.131,489.802    L241.131,489.802H139.304V372.716c0-5.84,4.751-10.591,10.591-10.591h80.646c5.84,0,10.591,4.751,10.591,10.591V489.802z     M433.82,489.802H261.13V372.716c0-16.867-13.722-30.59-30.59-30.59h-80.646c-16.867,0-30.59,13.722-30.59,30.59v117.087H78.162    V309.802h60.609c5.523,0,10-4.477,10-10c0-5.523-4.477-10-10-10H78.162v-18.396H433.82V489.802z M33.922,251.409L33.922,251.409    L255.991,26.433l135.838,137.616c0.018,0.018,0.036,0.036,0.054,0.055l32.294,32.717h-43.78c-5.523,0-10,4.477-10,10    c0,5.523,4.477,10,10,10h63.521l34.142,34.589H33.922z" fill="#FFFFFF"/>
	</g>
</g>
<g>
	<g>
		<path d="M376.941,3.718c-5.523,0-10,4.477-10,10v17.999c0,5.523,4.477,10,10,10s10-4.477,10-10V13.718    C386.941,8.195,382.464,3.718,376.941,3.718z" fill="#FFFFFF"/>
	</g>
</g>
<g>
	<g>
		<path d="M432.939,18.724c-4.782-2.762-10.898-1.123-13.659,3.66l-9,15.587c-2.761,4.783-1.123,10.899,3.66,13.659    c1.575,0.91,3.294,1.342,4.991,1.342c3.456,0,6.817-1.794,8.669-5.002l9-15.587C439.36,27.6,437.722,21.484,432.939,18.724z" fill="#FFFFFF"/>
	</g>
</g>
<g>
	<g>
		<path d="M473.932,59.716c-2.762-4.784-8.877-6.422-13.659-3.66l-15.587,9c-4.783,2.761-6.422,8.877-3.66,13.659    c1.852,3.209,5.213,5.002,8.669,5.002c1.696,0,3.416-0.433,4.991-1.342l15.587-9C475.055,70.615,476.694,64.498,473.932,59.716z" fill="#FFFFFF"/>
	</g>
</g>
<g>
	<g>
		<path d="M478.937,105.714h-17.999c-5.523,0-10,4.477-10,10c0,5.523,4.477,10,10,10h17.999c5.523,0,10-4.477,10-10    C488.936,110.191,484.46,105.714,478.937,105.714z" fill="#FFFFFF"/>
	</g>
</g>
<g>
	<g>
		<path d="M350.975,196.82h-1.114c-5.523,0-10,4.477-10,10s4.477,10,10,10h1.114c5.523,0,10-4.477,10-10    S356.498,196.82,350.975,196.82z" fill="#FFFFFF"/>
	</g>
</g>
<g>
</g>
<g>
</g>
<g>
</g>
<g>
</g>
<g>
</g>
<g>
</g>
<g>
</g>
<g>
</g>
<g>
</g>
<g>
</g>
<g>
</g>
<g>
</g>
<g>
</g>
<g>
</g>
<g>
</g>
</svg>
