<?xml version="1.0" encoding="iso-8859-1"?>
<!-- Generator: Adobe Illustrator 19.0.0, SVG Export Plug-In . SVG Version: 6.00 Build 0)  -->
<svg xmlns="http://www.w3.org/2000/svg" xmlns:xlink="http://www.w3.org/1999/xlink" version="1.1" id="Capa_1" x="0px" y="0px" viewBox="0 0 512 512" style="enable-background:new 0 0 512 512;" xml:space="preserve" width="512px" height="512px">
<g>
	<g>
		<path d="M267.628,283.667H207.66v-33.2h-55.335v33.201H80.282L0.406,363.544v146.492h347.099V363.544L267.628,283.667z     M167.416,265.559h25.152v35.213h-25.152V265.559z M181.502,494.946H15.498v-120.73h166.004V494.946z M26.168,359.125    l60.365-60.365h65.792v17.103h55.335V298.76h38.628l-60.365,60.365H26.168z M282.11,494.946h-35.213v-67.911    c0-9.708,7.899-17.606,17.606-17.606s17.606,7.899,17.606,17.606V494.946z M332.414,494.946h-35.213v-67.911    c0-18.029-14.669-32.698-32.698-32.698s-32.698,14.669-32.698,32.698v67.911h-35.213V369.795l67.911-67.911l67.911,67.911V494.946    z" fill="#FFFFFF"/>
	</g>
</g>
<g>
	<g>
		<rect x="365.108" y="380.25" width="146.888" height="15.091" fill="#FFFFFF"/>
	</g>
</g>
<g>
	<g>
		<path d="M362.737,248.046c-18.533,16.722-36.039,32.516-58.348,44.35l7.072,13.332c23.959-12.709,42.985-29.876,61.385-46.477    C408.818,226.795,442.795,196.14,512,196.14v-15.091C436.993,181.048,399.244,215.107,362.737,248.046z" fill="#FFFFFF"/>
	</g>
</g>
<g>
	<g>
		<path d="M266.55,212.066c-27.317-24.643-55.391-49.935-101.146-59.359v-17.615c19.989-3.576,35.213-21.076,35.213-42.078V59.814    c0-23.578-19.181-42.759-42.759-42.759c-11.87,0-22.622,4.864-30.377,12.702c-6.08-16.217-21.735-27.793-40.049-27.793    c-23.578,0-42.759,19.181-42.759,42.759v48.292c0,21.002,15.224,38.503,35.213,42.078v18.974    C44.183,162.782,20.205,181.082,0,198.544l9.868,11.419c17.996-15.552,39.205-31.82,70.019-40.222v17.847h15.091v-21.166    c9.377-1.586,19.554-2.477,30.686-2.477c8.799,0,16.975,0.544,24.649,1.532v22.111h15.091v-19.45    c39.935,9.061,64.935,31.587,91.036,55.134c17.884,16.135,36.377,32.817,59.986,44.917l6.884-13.43    C301.46,243.56,284.502,228.262,266.55,212.066z M87.433,120.683c-15.256,0-27.667-12.412-27.667-27.667V44.723    c0-15.256,12.411-27.667,27.667-27.667c15.256,0,27.667,12.411,27.667,27.667v15.091v33.201    C115.1,108.272,102.689,120.683,87.433,120.683z M150.313,150.262c-7.726-0.915-15.917-1.408-24.649-1.408    c-11.061,0-21.24,0.808-30.686,2.246v-16.006c11.437-2.046,21.311-8.646,27.667-17.861c6.356,9.214,16.23,15.815,27.667,17.861    V150.262z M157.859,120.683c-15.256,0-27.667-12.411-27.667-27.667V59.815c0-15.256,12.411-27.667,27.667-27.667    c15.256,0,27.667,12.411,27.667,27.667v33.201C185.526,108.272,173.115,120.683,157.859,120.683z" fill="#FFFFFF"/>
	</g>
</g>
<g>
	<g>
		<path d="M451.966,85.47c-77.518,0-116.547,35.208-154.29,69.257c-10.91,9.843-22.192,20.019-34.159,29.025l9.074,12.058    c12.504-9.408,24.038-19.814,35.194-29.877c37.266-33.618,72.465-65.371,144.182-65.371c19.343,0,36.652,2.278,52.913,6.963    l4.178-14.502C491.418,87.94,472.743,85.47,451.966,85.47z" fill="#FFFFFF"/>
	</g>
</g>
<g>
	<g>
		<path d="M35.619,399.368v55.335h55.335v-55.335H35.619z M75.863,439.611H50.711v-25.152h25.152V439.611z" fill="#FFFFFF"/>
	</g>
</g>
<g>
	<g>
		<path d="M106.045,399.368v55.335h55.335v-55.335H106.045z M146.289,439.611h-25.152v-25.152h25.152V439.611z" fill="#FFFFFF"/>
	</g>
</g>
<g>
	<g>
		<g>
			<rect x="33.104" y="467.782" width="15.091" height="15.091" fill="#FFFFFF"/>
			<rect x="63.287" y="467.782" width="30.182" height="15.091" fill="#FFFFFF"/>
		</g>
	</g>
</g>
<g>
	<g>
		<g>
			
				<rect x="254.688" y="336.307" transform="matrix(-0.7071 -0.7071 0.7071 -0.7071 225.3865 781.0615)" width="39.536" height="15.09" fill="#FFFFFF"/>
			
				<rect x="296.897" y="366.291" transform="matrix(0.7071 -0.7071 0.7071 0.7071 -175.1734 324.7672)" width="15.09" height="15.09" fill="#FFFFFF"/>
		</g>
	</g>
</g>
<g>
	<g>
		<polygon points="92.785,313.851 68.012,338.624 78.683,349.294 99.036,328.942 136.731,328.942 136.731,313.851   " fill="#FFFFFF"/>
	</g>
</g>
<g>
	<g>
		<g>
			<path d="M351.426,297.509l9.262,11.915c3.842-2.987,7.751-6.167,11.95-9.726l-9.753-11.516     C358.848,291.602,355.099,294.654,351.426,297.509z" fill="#FFFFFF"/>
			<path d="M392.294,262.072c-3.092,2.747-6.195,5.548-9.355,8.398c-2.918,2.632-5.851,5.279-8.819,7.923l10.039,11.268     c2.992-2.665,5.949-5.332,8.907-8.001c3.113-2.809,6.188-5.584,9.252-8.305L392.294,262.072z" fill="#FFFFFF"/>
		</g>
	</g>
</g>
<g>
	<g>
		<g>
			<path d="M440.154,227.324l6.865,13.439c4.253-2.172,8.633-4.111,13.019-5.763l-5.318-14.122     C449.807,222.728,444.906,224.896,440.154,227.324z" fill="#FFFFFF"/>
			<path d="M494.203,212.022c-8.425,0.777-16.594,2.155-24.281,4.097l3.695,14.631c6.931-1.751,14.323-2.995,21.971-3.7     L494.203,212.022z" fill="#FFFFFF"/>
		</g>
	</g>
</g>
<g>
	<g>
		<g>
			<path d="M369.41,202.235l9.512,11.717c4.027-3.269,7.834-6.214,11.638-9.002l-8.921-12.173     C377.632,195.714,373.631,198.807,369.41,202.235z" fill="#FFFFFF"/>
			<path d="M418.219,170.718c-8.085,3.834-15.859,8.167-23.767,13.245l8.153,12.699c7.361-4.726,14.583-8.752,22.081-12.308     L418.219,170.718z" fill="#FFFFFF"/>
		</g>
	</g>
</g>
<g>
	<g>
		<path d="M45.078,201.908c-11.964,7.808-22.982,17.259-33.106,26.309l10.058,11.252c9.682-8.654,20.173-17.664,31.296-24.923    L45.078,201.908z" fill="#FFFFFF"/>
	</g>
</g>
<g>
	<g>
		<g>
			<path d="M189.414,209.221c13.251,7.341,24.914,17.016,35.542,26.376l9.975-11.326c-11.268-9.923-23.694-20.213-38.203-28.252     L189.414,209.221z" fill="#FFFFFF"/>
			<path d="M246.331,234.475l-0.095-0.085l-10.095,11.217l0.083,0.074c3.63,3.276,7.385,6.663,11.215,10.043l9.984-11.316     C253.655,241.084,249.932,237.724,246.331,234.475z" fill="#FFFFFF"/>
		</g>
	</g>
</g>
<g>
	<g>
		<g>
			<path d="M344.29,154.214l9.448,11.767c4.082-3.277,7.894-6.152,11.653-8.79l-8.667-12.354     C352.695,147.663,348.628,150.73,344.29,154.214z" fill="#FFFFFF"/>
			<path d="M369.97,136.347l7.563,13.059c4.193-2.429,8.474-4.626,12.723-6.531l-6.177-13.769     C379.358,131.223,374.611,133.66,369.97,136.347z" fill="#FFFFFF"/>
			<path d="M398.921,123.398l4.638,14.36c14.612-4.721,30.447-7.014,48.409-7.013v-15.091     C432.408,115.653,415.056,118.187,398.921,123.398z" fill="#FFFFFF"/>
		</g>
	</g>
</g>
<g>
	<g>
		<g>
			<rect x="84.917" y="77.924" width="15.091" height="15.091" fill="#FFFFFF"/>
			<rect x="84.917" y="44.723" width="15.091" height="18.11" fill="#FFFFFF"/>
		</g>
	</g>
</g>
<g>
	<g>
		<rect x="155.339" y="59.813" width="15.091" height="33.201" fill="#FFFFFF"/>
	</g>
</g>
<g>
	<g>
		<rect x="374.163" y="415.463" width="21.128" height="15.091" fill="#FFFFFF"/>
	</g>
</g>
<g>
	<g>
		<rect x="393.278" y="445.646" width="54.328" height="15.091" fill="#FFFFFF"/>
	</g>
</g>
<g>
	<g>
		<rect x="438.552" y="411.439" width="31.189" height="15.091" fill="#FFFFFF"/>
	</g>
</g>
<g>
	<g>
		<rect x="466.722" y="471.804" width="24.146" height="15.091" fill="#FFFFFF"/>
	</g>
</g>
<g>
	<g>
		<rect x="408.369" y="484.883" width="39.237" height="15.091" fill="#FFFFFF"/>
	</g>
</g>
<g>
	<g>
		<rect x="363.096" y="477.84" width="24.146" height="15.091" fill="#FFFFFF"/>
	</g>
</g>
<g>
	<g>
		<rect x="482.82" y="437.597" width="19.116" height="15.091" fill="#FFFFFF"/>
	</g>
</g>
<g>
</g>
<g>
</g>
<g>
</g>
<g>
</g>
<g>
</g>
<g>
</g>
<g>
</g>
<g>
</g>
<g>
</g>
<g>
</g>
<g>
</g>
<g>
</g>
<g>
</g>
<g>
</g>
<g>
</g>
</svg>
