<?xml version="1.0" encoding="iso-8859-1"?>
<!-- Generator: Adobe Illustrator 19.0.0, SVG Export Plug-In . SVG Version: 6.00 Build 0)  -->
<svg xmlns="http://www.w3.org/2000/svg" xmlns:xlink="http://www.w3.org/1999/xlink" version="1.1" id="Capa_1" x="0px" y="0px" viewBox="0 0 512 512" style="enable-background:new 0 0 512 512;" xml:space="preserve" width="512px" height="512px">
<g>
	<g>
		<rect y="493.5" width="512" height="15" fill="#FFFFFF"/>
	</g>
</g>
<g>
	<g>
		<path d="M481.5,403.5V267.008l-111.691-75.177L226.5,297.205V321h15v-16.205l128.691-94.626l96.309,64.823V403.5h-25v-90h-75v90    h-81.018c-0.189-14.177-8.351-26.93-20.855-33.113c-0.057-0.28-0.126-0.556-0.189-0.834c-0.06-0.266-0.116-0.532-0.18-0.796    c-0.094-0.383-0.198-0.762-0.302-1.141c-0.066-0.241-0.127-0.485-0.198-0.724c-0.125-0.427-0.263-0.849-0.401-1.27    c-0.061-0.185-0.115-0.373-0.178-0.557c-0.206-0.6-0.424-1.195-0.655-1.782c-0.051-0.129-0.108-0.254-0.16-0.382    c-0.186-0.458-0.374-0.914-0.575-1.364c-0.097-0.216-0.201-0.427-0.301-0.642c-0.166-0.355-0.331-0.711-0.506-1.061    c-0.118-0.236-0.244-0.467-0.367-0.701c-0.168-0.321-0.336-0.642-0.512-0.958c-0.134-0.241-0.275-0.477-0.414-0.715    c-0.176-0.301-0.352-0.602-0.535-0.898c-0.148-0.239-0.301-0.475-0.453-0.711c-0.185-0.287-0.372-0.573-0.564-0.855    c-0.159-0.234-0.322-0.465-0.486-0.695c-0.197-0.277-0.396-0.551-0.599-0.823c-0.169-0.226-0.341-0.45-0.514-0.673    c-0.208-0.267-0.419-0.531-0.633-0.792c-0.179-0.219-0.36-0.437-0.543-0.652c-0.219-0.257-0.442-0.509-0.667-0.76    c-0.188-0.21-0.376-0.42-0.568-0.626c-0.232-0.249-0.468-0.492-0.706-0.735c-0.194-0.199-0.388-0.399-0.586-0.594    c-0.248-0.243-0.501-0.48-0.755-0.718c-0.197-0.184-0.392-0.371-0.592-0.552c-0.269-0.243-0.546-0.478-0.821-0.713    c-0.193-0.165-0.384-0.334-0.58-0.496c-0.311-0.256-0.629-0.502-0.947-0.75c-0.169-0.132-0.335-0.268-0.507-0.398    c-0.49-0.369-0.989-0.729-1.495-1.077c-0.087-0.06-0.178-0.115-0.265-0.174c-0.425-0.287-0.853-0.57-1.288-0.842    c-0.194-0.121-0.393-0.234-0.589-0.352c-0.335-0.202-0.67-0.404-1.011-0.597c-0.226-0.127-0.456-0.247-0.684-0.37    c-0.319-0.172-0.637-0.345-0.96-0.509c-0.242-0.123-0.488-0.239-0.732-0.357c-0.317-0.153-0.634-0.307-0.956-0.452    c-0.253-0.115-0.51-0.224-0.766-0.334c-0.319-0.137-0.639-0.273-0.962-0.402c-0.263-0.105-0.527-0.206-0.793-0.306    c-0.324-0.122-0.649-0.242-0.977-0.357c-0.268-0.094-0.537-0.184-0.807-0.272c-0.332-0.109-0.666-0.213-1.002-0.314    c-0.272-0.082-0.545-0.161-0.819-0.238c-0.339-0.094-0.681-0.183-1.023-0.269c-0.276-0.069-0.552-0.138-0.829-0.202    c-0.349-0.08-0.701-0.153-1.053-0.225c-0.276-0.056-0.551-0.114-0.828-0.164c-0.363-0.066-0.729-0.124-1.095-0.181    c-0.272-0.043-0.542-0.088-0.816-0.125c-0.385-0.053-0.774-0.094-1.163-0.137c-0.258-0.028-0.514-0.061-0.773-0.085    c-0.434-0.039-0.871-0.066-1.309-0.092c-0.218-0.013-0.434-0.033-0.653-0.043c-0.658-0.03-1.319-0.046-1.984-0.046    c-0.627,0-1.251,0.016-1.873,0.044c-0.206,0.009-0.41,0.026-0.616,0.038c-0.415,0.024-0.831,0.05-1.243,0.087    c-0.24,0.021-0.478,0.049-0.716,0.074c-0.376,0.04-0.751,0.081-1.124,0.131c-0.25,0.033-0.499,0.071-0.749,0.109    c-0.36,0.055-0.718,0.112-1.075,0.176c-0.251,0.045-0.5,0.092-0.75,0.141c-0.354,0.07-0.707,0.145-1.059,0.223    c-0.245,0.055-0.489,0.11-0.732,0.169c-0.358,0.087-0.713,0.18-1.067,0.276c-0.231,0.062-0.462,0.123-0.692,0.189    c-0.378,0.109-0.753,0.228-1.127,0.347c-0.2,0.064-0.401,0.123-0.599,0.19c-0.485,0.163-0.964,0.336-1.442,0.516    c-0.084,0.031-0.169,0.059-0.252,0.091c-0.56,0.215-1.114,0.442-1.663,0.68c-0.161,0.07-0.319,0.146-0.479,0.218    c-0.386,0.173-0.77,0.347-1.15,0.531c-0.202,0.098-0.401,0.201-0.601,0.302c-0.333,0.168-0.665,0.337-0.993,0.513    c-0.212,0.114-0.422,0.232-0.633,0.35c-0.311,0.174-0.621,0.351-0.928,0.532c-0.212,0.126-0.423,0.254-0.632,0.383    c-0.301,0.185-0.599,0.374-0.895,0.567c-0.205,0.133-0.409,0.267-0.612,0.404c-0.299,0.202-0.593,0.408-0.886,0.617    c-0.192,0.137-0.384,0.272-0.574,0.412c-0.307,0.226-0.608,0.459-0.909,0.694c-0.168,0.131-0.338,0.259-0.504,0.392    c-0.358,0.288-0.71,0.584-1.059,0.883c-0.101,0.087-0.205,0.169-0.305,0.257c-0.447,0.391-0.886,0.79-1.316,1.199    c-0.107,0.102-0.21,0.209-0.317,0.312c-0.32,0.31-0.637,0.622-0.947,0.941c-0.15,0.155-0.296,0.315-0.444,0.472    c-0.259,0.275-0.517,0.551-0.768,0.833c-0.159,0.178-0.313,0.359-0.469,0.54c-0.233,0.27-0.464,0.542-0.69,0.818    c-0.157,0.191-0.311,0.385-0.465,0.579c-0.218,0.275-0.432,0.552-0.643,0.833c-0.15,0.199-0.298,0.399-0.445,0.601    c-0.208,0.286-0.41,0.577-0.611,0.868c-0.138,0.201-0.277,0.401-0.412,0.605c-0.204,0.308-0.401,0.621-0.597,0.934    c-0.121,0.194-0.245,0.386-0.363,0.582c-0.217,0.359-0.425,0.724-0.631,1.091c-0.088,0.156-0.18,0.308-0.265,0.465    c-0.286,0.524-0.563,1.054-0.828,1.591c-0.055,0.112-0.105,0.227-0.159,0.339c-0.207,0.429-0.409,0.859-0.602,1.296    c-0.09,0.203-0.172,0.411-0.259,0.616c-0.148,0.351-0.296,0.703-0.435,1.06c-0.09,0.231-0.175,0.466-0.261,0.699    c-0.125,0.336-0.247,0.674-0.363,1.014c-0.084,0.246-0.164,0.494-0.244,0.743c-0.058,0.181-0.122,0.358-0.177,0.54    C165.664,367.961,152.5,381.972,152.5,399c0,1.51,0.116,3.013,0.324,4.5H134.5v-43.466c30.937-3.719,55-30.111,55-62.034v-70    c0-34.463-28.038-62.5-62.5-62.5c-2.327,0-4.65,0.138-6.959,0.396l-0.253-5.591c-0.908-20.077-17.363-35.805-37.461-35.805H50.544    c-20.007,0-36.459,15.653-37.454,35.636l-8.014,161c-0.516,10.358,3.138,20.2,10.286,27.714    c7.149,7.513,16.797,11.65,27.167,11.65H58.5v43H0v15h512v-15H481.5z M58.5,277.893l-9.197-9.197l-10.606,10.607L58.5,299.107    V345.5H42.53c-6.222,0-12.011-2.482-16.3-6.99s-6.481-10.413-6.172-16.628l8.014-161c0.597-11.99,10.468-21.382,22.472-21.382    h31.783c12.059,0,21.932,9.437,22.477,21.482l7.285,161c0.28,6.197-1.926,12.08-6.212,16.564    c-4.286,4.483-10.062,6.953-16.265,6.953H73.5v-23.393l23.803-23.803l-10.606-10.607L73.5,300.893V255h-15V277.893z M119.5,403.5    h-46v-43h16.112c5.74,0,11.26-1.273,16.258-3.682c4.418,1.591,8.975,2.662,13.63,3.219V403.5z M119.99,344.983    c4.975-6.834,7.472-15.071,7.083-23.679l-6.352-140.385c2.079-0.275,4.177-0.419,6.279-0.419c26.191,0,47.5,21.309,47.5,47.5v70    c0,26.191-21.309,47.5-47.5,47.5C124.634,345.5,122.295,345.324,119.99,344.983z M168.091,403.499    c-0.388-1.459-0.591-2.972-0.591-4.499c0-9.649,7.851-17.5,17.5-17.5c0.76,0,1.535,0.054,2.305,0.16l7.44,1.026l1.016-7.441    C197.609,361.708,209.319,351.5,223,351.5c2.673,0,5.259,0.376,7.704,1.08c0.815,0.235,1.615,0.506,2.397,0.812    c0.782,0.306,1.547,0.647,2.292,1.02c8.2,4.111,14.052,12.211,14.979,21.958l0.456,4.795l4.551,1.58    c8.884,3.083,14.891,11.384,15.099,20.754H168.091z M426.5,403.5h-45v-75h45V403.5z" fill="#FFFFFF"/>
	</g>
</g>
<g>
	<g>
		<path d="M457.5,214.689V152.5h-45v31.899l-43.45-29.248L199.557,279.778l8.886,12.084l160.988-118.373l130.381,87.763    l8.376-12.443L457.5,214.689z M442.5,204.592l-15-10.097V167.5h15V204.592z" fill="#FFFFFF"/>
	</g>
</g>
<g>
	<g>
		<path d="M290.5,314.5v55h55v-55H290.5z M330.5,354.5h-25v-25h25V354.5z" fill="#FFFFFF"/>
	</g>
</g>
<g>
	<g>
		<path d="M115,3.5C94.322,3.5,77.5,20.322,77.5,41S94.322,78.5,115,78.5s37.5-16.822,37.5-37.5S135.678,3.5,115,3.5z M115,63.5    c-12.407,0-22.5-10.094-22.5-22.5s10.093-22.5,22.5-22.5s22.5,10.094,22.5,22.5S127.407,63.5,115,63.5z" fill="#FFFFFF"/>
	</g>
</g>
<g>
	<g>
		<path d="M351,38.5h-81c-12.407,0-22.5,10.094-22.5,22.5c0,4.136-3.364,7.5-7.5,7.5h-32c-12.407,0-22.5,10.094-22.5,22.5    s10.093,22.5,22.5,22.5h81c12.407,0,22.5-10.094,22.5-22.5c0-4.136,3.364-7.5,7.5-7.5h32c12.407,0,22.5-10.094,22.5-22.5    S363.407,38.5,351,38.5z M351,68.5h-32c-12.407,0-22.5,10.094-22.5,22.5c0,4.136-3.364,7.5-7.5,7.5h-81    c-4.136,0-7.5-3.364-7.5-7.5s3.364-7.5,7.5-7.5h32c12.407,0,22.5-10.094,22.5-22.5c0-4.136,3.364-7.5,7.5-7.5h81    c4.136,0,7.5,3.364,7.5,7.5S355.136,68.5,351,68.5z" fill="#FFFFFF"/>
	</g>
</g>
<g>
	<g>
		<rect x="427.5" y="60" width="15" height="15" fill="#FFFFFF"/>
	</g>
</g>
<g>
	<g>
		<rect x="427.5" y="120" width="15" height="15" fill="#FFFFFF"/>
	</g>
</g>
<g>
	<g>
		<rect x="427.5" y="90" width="15" height="15" fill="#FFFFFF"/>
	</g>
</g>
<g>
	<g>
		<rect x="467.5" y="60" width="15" height="15" fill="#FFFFFF"/>
	</g>
</g>
<g>
	<g>
		<rect x="467.5" y="30" width="15" height="15" fill="#FFFFFF"/>
	</g>
</g>
<g>
	<g>
		<rect x="467.5" y="90" width="15" height="15" fill="#FFFFFF"/>
	</g>
</g>
<g>
	<g>
		<g>
			<polygon points="89.495,154.5 50.544,154.5 50.544,169.5 75.158,169.5 76.329,195.369 91.313,194.691    " fill="#FFFFFF"/>
			<rect x="77.338" y="210.008" transform="matrix(0.999 -0.0452 0.0452 0.999 -9.7448 4.057)" width="14.999" height="14.999" fill="#FFFFFF"/>
		</g>
	</g>
</g>
<g>
	<g>
		<g>
			<path d="M138.708,197.681l-5.416,13.988c6.704,2.596,11.208,9.159,11.208,16.331v30h15v-30     C159.5,214.681,151.145,202.496,138.708,197.681z" fill="#FFFFFF"/>
			<rect x="144.5" y="273" width="15" height="15" fill="#FFFFFF"/>
		</g>
	</g>
</g>
<g>
	<g>
		<g>
			
				<rect x="294.543" y="280.705" transform="matrix(-0.5924 -0.8056 0.8056 -0.5924 248.7926 702.2778)" width="14.999" height="15" fill="#FFFFFF"/>
			
				<rect x="317.053" y="257.881" transform="matrix(0.8057 -0.5924 0.5924 0.8057 -92.4741 248.8883)" width="32.062" height="14.999" fill="#FFFFFF"/>
		</g>
	</g>
</g>
<g>
	<g>
		<g>
			
				<rect x="372.674" y="248.547" transform="matrix(-0.8296 -0.5584 0.5584 -0.8296 585.2982 690.7288)" width="50.763" height="15" fill="#FFFFFF"/>
			<rect x="430.278" y="275.282" transform="matrix(0.5584 -0.8296 0.8296 0.5584 -41.2698 488.0352)" width="15" height="15" fill="#FFFFFF"/>
		</g>
	</g>
</g>
<g>
	<g>
		<path d="M216,364.5v15c4.687,0,8.5,3.813,8.5,8.5h15C239.5,375.042,228.958,364.5,216,364.5z" fill="#FFFFFF"/>
	</g>
</g>
<g>
	<g>
		<rect x="27" y="430.5" width="51" height="15" fill="#FFFFFF"/>
	</g>
</g>
<g>
	<g>
		<rect x="73" y="458.5" width="14" height="15" fill="#FFFFFF"/>
	</g>
</g>
<g>
	<g>
		<rect x="28" y="470.5" width="29" height="15" fill="#FFFFFF"/>
	</g>
</g>
<g>
	<g>
		<rect x="114" y="438.5" width="44" height="15" fill="#FFFFFF"/>
	</g>
</g>
<g>
	<g>
		<rect x="155" y="466.5" width="27" height="15" fill="#FFFFFF"/>
	</g>
</g>
<g>
	<g>
		<rect x="200" y="439.5" width="29" height="15" fill="#FFFFFF"/>
	</g>
</g>
<g>
	<g>
		<rect x="268" y="427.5" width="22" height="15" fill="#FFFFFF"/>
	</g>
</g>
<g>
	<g>
		<rect x="231" y="467.5" width="34" height="15" fill="#FFFFFF"/>
	</g>
</g>
<g>
	<g>
		<rect x="291" y="450.5" width="38" height="15" fill="#FFFFFF"/>
	</g>
</g>
<g>
	<g>
		<rect x="351" y="437.5" width="41" height="15" fill="#FFFFFF"/>
	</g>
</g>
<g>
	<g>
		<rect x="388" y="466.5" width="19" height="15" fill="#FFFFFF"/>
	</g>
</g>
<g>
	<g>
		<rect x="423" y="436.5" width="30" height="15" fill="#FFFFFF"/>
	</g>
</g>
<g>
	<g>
		<rect x="444" y="466.5" width="20" height="15" fill="#FFFFFF"/>
	</g>
</g>
<g>
	<g>
		<rect x="472" y="438.5" width="27" height="15" fill="#FFFFFF"/>
	</g>
</g>
<g>
</g>
<g>
</g>
<g>
</g>
<g>
</g>
<g>
</g>
<g>
</g>
<g>
</g>
<g>
</g>
<g>
</g>
<g>
</g>
<g>
</g>
<g>
</g>
<g>
</g>
<g>
</g>
<g>
</g>
</svg>
