<?xml version="1.0" encoding="iso-8859-1"?>
<!-- Generator: Adobe Illustrator 19.0.0, SVG Export Plug-In . SVG Version: 6.00 Build 0)  -->
<svg xmlns="http://www.w3.org/2000/svg" xmlns:xlink="http://www.w3.org/1999/xlink" version="1.1" id="Capa_1" x="0px" y="0px" viewBox="0 0 512 512" style="enable-background:new 0 0 512 512;" xml:space="preserve" width="512px" height="512px">
<g>
	<g>
		<path d="M68.23,350.39c-0.13-0.64-0.32-1.27-0.57-1.87c-0.25-0.6-0.56-1.18-0.92-1.72c-0.36-0.55-0.78-1.06-1.24-1.52    c-0.46-0.47-0.97-0.88-1.52-1.25c-0.54-0.36-1.12-0.67-1.73-0.92c-0.6-0.25-1.23-0.44-1.87-0.57c-1.29-0.26-2.62-0.26-3.91,0    c-0.63,0.13-1.26,0.32-1.87,0.57c-0.6,0.25-1.18,0.56-1.72,0.92c-0.55,0.37-1.06,0.78-1.52,1.25c-0.46,0.46-0.88,0.97-1.25,1.52    c-0.36,0.54-0.66,1.12-0.91,1.72c-0.25,0.6-0.45,1.23-0.57,1.87c-0.13,0.65-0.2,1.3-0.2,1.96c0,0.65,0.07,1.31,0.2,1.95    c0.12,0.64,0.32,1.27,0.57,1.87c0.25,0.6,0.55,1.18,0.91,1.73c0.37,0.54,0.79,1.06,1.25,1.52c0.46,0.46,0.97,0.88,1.52,1.24    c0.54,0.36,1.12,0.67,1.72,0.92c0.61,0.25,1.24,0.44,1.87,0.57c0.65,0.13,1.31,0.2,1.96,0.2c0.65,0,1.31-0.07,1.95-0.2    s1.27-0.32,1.87-0.57c0.61-0.25,1.19-0.56,1.73-0.92c0.55-0.36,1.06-0.78,1.52-1.24c0.46-0.46,0.88-0.98,1.24-1.52    c0.36-0.55,0.67-1.13,0.92-1.73c0.25-0.6,0.44-1.23,0.57-1.87s0.2-1.3,0.2-1.95C68.43,351.69,68.36,351.04,68.23,350.39z" fill="#FFFFFF"/>
	</g>
</g>
<g>
	<g>
		<path d="M505.827,142.712c-3.737-1.548-8.038-0.692-10.898,2.168l-20.315,20.315H222.091V41.18    c0-17.019-13.846-30.864-30.864-30.864h-32.85c-17.019,0-30.864,13.846-30.864,30.864v124.015h-17.976    c-9.98-17.957-29.149-30.135-51.109-30.135C26.211,135.06,0,161.271,0,193.488v249.046c0,32.615,26.539,59.15,59.16,59.15H502    c5.522,0,10-4.477,10-10V151.951C512,147.906,509.564,144.26,505.827,142.712z M466.572,208.332l-3.404-3.404l22.657-22.658    c0.009-0.008,0.017-0.017,0.025-0.026l6.148-6.148v259.332H232.665l28.831-28.831l3.405,3.405    c1.953,1.953,4.512,2.929,7.071,2.929s5.119-0.977,7.071-2.929c3.905-3.905,3.905-10.237,0-14.142l-3.405-3.404l23.363-23.363    l3.405,3.405c1.953,1.953,4.512,2.929,7.071,2.929c2.56,0,5.118-0.976,7.071-2.929c3.905-3.905,3.905-10.237,0-14.143    l-3.405-3.404l23.365-23.364l3.405,3.405c1.952,1.953,4.511,2.929,7.07,2.929c2.56,0,5.119-0.977,7.071-2.929    c3.905-3.905,3.905-10.237-0.001-14.142l-3.404-3.404l23.364-23.364l3.405,3.404c1.953,1.953,4.512,2.929,7.071,2.929    c2.56,0,5.119-0.977,7.071-2.929c3.905-3.905,3.905-10.237,0-14.142l-3.404-3.404l23.363-23.363l3.404,3.404    c1.953,1.953,4.512,2.929,7.071,2.929s5.118-0.976,7.071-2.929c3.905-3.905,3.905-10.237,0-14.143l-3.404-3.404l23.364-23.364    l3.405,3.405c1.953,1.953,4.512,2.929,7.071,2.929c2.56,0,5.118-0.976,7.071-2.929    C470.477,218.57,470.477,212.238,466.572,208.332z M147.512,41.18L147.512,41.18c0.001-5.991,4.875-10.864,10.865-10.864h32.85    c5.991,0,10.864,4.874,10.864,10.864v47.943h-54.579V41.18z M147.512,109.123h54.579v273.063h-17.289V166.969    c0-5.523-4.477-10-10-10s-10,4.477-10,10v215.217h-17.29V109.123z M188.865,402.186l-14.111,19.185l-14.281-19.185H188.865z     M19.996,193.488C20,175.757,32.072,160.792,48.428,156.38v157.464c0,5.523,4.477,10,10,10c5.523,0,10-4.477,10-10V156.38    c11.401,3.075,20.72,11.278,25.32,21.972c0.073,0.218,0.153,0.434,0.241,0.649c1.664,4.043,2.61,8.277,2.821,12.613    c0.001,0.02,0.002,0.041,0.003,0.061c0.006,0.131,0.012,0.261,0.017,0.392c0.002,0.056,0.004,0.113,0.005,0.169    c0.003,0.1,0.007,0.2,0.009,0.3c0.002,0.092,0.004,0.185,0.005,0.278c0.001,0.064,0.003,0.129,0.003,0.193    c0.002,0.161,0.003,0.322,0.003,0.483v204.904c-10.279-8.993-23.729-14.45-38.428-14.45c-0.214,0-0.427,0.001-0.64,0.004    c-0.023,0-0.047,0.001-0.07,0.001c-0.205,0.003-0.409,0.006-0.613,0.011c-0.029,0.001-0.059,0.001-0.088,0.002    c-0.2,0.005-0.4,0.01-0.599,0.017c-0.033,0.001-0.065,0.002-0.098,0.004c-0.201,0.007-0.402,0.015-0.602,0.024    c-0.027,0.001-0.053,0.003-0.08,0.004c-0.206,0.01-0.411,0.02-0.616,0.032c-0.017,0.001-0.033,0.002-0.05,0.003    c-0.429,0.025-0.856,0.055-1.282,0.089c-0.019,0.001-0.038,0.003-0.058,0.005c-0.205,0.017-0.41,0.035-0.615,0.054    c-0.023,0.002-0.046,0.004-0.069,0.006c-0.202,0.019-0.405,0.039-0.607,0.06c-0.025,0.003-0.051,0.005-0.076,0.008    c-0.202,0.021-0.404,0.043-0.606,0.067c-0.021,0.003-0.041,0.005-0.062,0.007c-0.432,0.05-0.862,0.105-1.291,0.165    c-0.001,0-0.002,0-0.003,0c-0.212,0.03-0.423,0.061-0.634,0.092c-0.015,0.002-0.029,0.004-0.044,0.007    c-0.206,0.031-0.412,0.064-0.618,0.097c-0.017,0.003-0.033,0.005-0.05,0.008c-0.206,0.034-0.411,0.068-0.616,0.104    c-0.015,0.003-0.029,0.005-0.044,0.008c-0.209,0.037-0.417,0.074-0.625,0.113c-0.005,0.001-0.01,0.002-0.015,0.003    c-0.645,0.121-1.286,0.252-1.924,0.394c-0.01,0.002-0.02,0.004-0.03,0.007c-0.206,0.046-0.412,0.093-0.618,0.141    c-0.01,0.002-0.02,0.005-0.03,0.007c-1.068,0.251-2.124,0.531-3.169,0.84c-0.208,0.062-0.415,0.124-0.622,0.188    c-0.004,0.001-0.008,0.002-0.012,0.004c-4.801,1.479-9.341,3.562-13.53,6.159c-2.001,1.241-3.922,2.599-5.754,4.066    c-0.005,0.004-0.01,0.008-0.015,0.012c-0.163,0.131-0.325,0.262-0.487,0.394c-0.003,0.002-0.005,0.005-0.008,0.007    c-0.494,0.404-0.981,0.817-1.461,1.237V193.488z M492,481.685H59.16c-21.593,0-39.16-17.563-39.16-39.15v-0.165    c0-21.189,17.239-38.428,38.428-38.428c21.189,0,38.428,17.239,38.428,38.428c0,5.523,4.477,10,10,10s10-4.477,10-10V193.488    c0-0.156-0.001-0.312-0.002-0.468c0-0.041-0.001-0.083-0.001-0.125c-0.001-0.135-0.003-0.27-0.005-0.405    c0-0.023-0.001-0.045-0.001-0.068c-0.003-0.167-0.007-0.334-0.011-0.501v-0.006c-0.004-0.166-0.01-0.332-0.016-0.498    c0-0.011-0.001-0.022-0.001-0.034c-0.074-2.093-0.259-4.158-0.549-6.19h11.244v206.991c0,0.082,0.001,0.163,0.003,0.245    c0.001,0.023,0.002,0.046,0.002,0.069c0.002,0.057,0.004,0.114,0.006,0.171c0.001,0.03,0.003,0.059,0.005,0.089    c0.003,0.051,0.006,0.102,0.01,0.153c0.002,0.031,0.005,0.061,0.007,0.092c0.004,0.049,0.008,0.099,0.013,0.148    c0.003,0.03,0.006,0.061,0.009,0.091c0.005,0.05,0.011,0.1,0.017,0.15c0.004,0.03,0.007,0.06,0.011,0.09    c0.008,0.06,0.016,0.12,0.025,0.18c0.002,0.017,0.005,0.034,0.007,0.051c0.012,0.078,0.025,0.157,0.039,0.234    c0.003,0.018,0.007,0.035,0.01,0.053c0.011,0.06,0.022,0.119,0.034,0.178c0.005,0.027,0.011,0.054,0.017,0.081    c0.01,0.049,0.021,0.097,0.032,0.146c0.007,0.031,0.014,0.062,0.022,0.093c0.011,0.046,0.022,0.091,0.033,0.136    c0.008,0.031,0.015,0.061,0.023,0.091c0.012,0.046,0.024,0.092,0.037,0.137c0.008,0.029,0.016,0.058,0.024,0.087    c0.015,0.051,0.03,0.102,0.046,0.154c0.007,0.022,0.013,0.045,0.02,0.067c0.046,0.148,0.096,0.294,0.149,0.439    c0.008,0.021,0.016,0.042,0.023,0.063c0.019,0.051,0.038,0.102,0.058,0.152c0.01,0.026,0.021,0.052,0.031,0.079    c0.018,0.045,0.036,0.091,0.055,0.136c0.011,0.027,0.023,0.054,0.034,0.081c0.019,0.044,0.038,0.088,0.058,0.132    c0.012,0.027,0.024,0.053,0.036,0.08c0.02,0.045,0.041,0.089,0.062,0.134c0.012,0.024,0.023,0.049,0.035,0.074    c0.025,0.053,0.052,0.105,0.078,0.157c0.008,0.016,0.016,0.031,0.024,0.047c0.034,0.067,0.069,0.134,0.105,0.2    c0.01,0.019,0.021,0.037,0.031,0.056c0.027,0.049,0.054,0.097,0.082,0.146c0.012,0.022,0.025,0.044,0.038,0.066    c0.025,0.043,0.05,0.086,0.076,0.129c0.016,0.026,0.032,0.052,0.048,0.078c0.024,0.039,0.048,0.077,0.072,0.116    c0.016,0.025,0.033,0.051,0.049,0.076c0.026,0.04,0.053,0.081,0.079,0.121c0.015,0.023,0.03,0.046,0.046,0.068    c0.029,0.043,0.059,0.086,0.089,0.128c0.014,0.02,0.027,0.039,0.041,0.059c0.088,0.123,0.178,0.244,0.271,0.362    c0.014,0.018,0.028,0.036,0.043,0.053c0.033,0.042,0.066,0.083,0.1,0.124c0.017,0.021,0.035,0.042,0.052,0.063    c0.03,0.036,0.061,0.073,0.092,0.108c0.02,0.023,0.04,0.046,0.06,0.069c0.031,0.035,0.061,0.07,0.092,0.104    c0.019,0.021,0.038,0.042,0.057,0.063c0.035,0.038,0.07,0.076,0.106,0.114c0.016,0.017,0.032,0.034,0.049,0.052    c0.043,0.045,0.087,0.09,0.132,0.135c0.009,0.009,0.017,0.018,0.026,0.026c0.054,0.054,0.109,0.108,0.165,0.161    c0.009,0.008,0.018,0.016,0.026,0.025c0.045,0.043,0.09,0.085,0.136,0.127c0.02,0.018,0.041,0.037,0.061,0.055    c0.036,0.032,0.072,0.064,0.108,0.096c0.022,0.019,0.044,0.038,0.066,0.057c0.036,0.031,0.073,0.062,0.11,0.093    c0.021,0.018,0.042,0.035,0.064,0.053c0.038,0.031,0.076,0.062,0.115,0.092c0.021,0.017,0.042,0.034,0.064,0.051    c0.042,0.033,0.085,0.066,0.128,0.098c0.017,0.013,0.034,0.026,0.052,0.039c0.122,0.091,0.246,0.179,0.372,0.264    c0.016,0.011,0.033,0.022,0.05,0.033c0.046,0.031,0.092,0.061,0.138,0.091c0.023,0.015,0.047,0.03,0.07,0.044    c0.041,0.026,0.081,0.051,0.123,0.077c0.024,0.015,0.049,0.03,0.073,0.044c0.043,0.026,0.086,0.051,0.129,0.076    c0.023,0.013,0.045,0.026,0.068,0.039c0.044,0.025,0.088,0.049,0.132,0.074c0.023,0.013,0.047,0.026,0.071,0.039    c0.056,0.03,0.112,0.06,0.168,0.089c0.01,0.005,0.02,0.011,0.03,0.016c0.069,0.035,0.139,0.07,0.209,0.104    c0.012,0.006,0.024,0.011,0.035,0.017c0.057,0.027,0.114,0.054,0.171,0.08c0.023,0.01,0.046,0.021,0.069,0.031    c0.047,0.021,0.094,0.042,0.141,0.062c0.026,0.011,0.051,0.022,0.077,0.032c0.046,0.019,0.092,0.038,0.139,0.057    c0.025,0.01,0.051,0.02,0.076,0.03c0.049,0.019,0.099,0.038,0.149,0.056c0.022,0.008,0.044,0.017,0.066,0.025    c0.055,0.02,0.109,0.039,0.164,0.058c0.019,0.006,0.037,0.013,0.056,0.019c0.147,0.05,0.296,0.096,0.447,0.139    c0.019,0.005,0.038,0.01,0.056,0.016c0.057,0.016,0.114,0.031,0.171,0.046c0.022,0.006,0.045,0.012,0.068,0.017    c0.053,0.013,0.106,0.026,0.16,0.039c0.025,0.006,0.05,0.012,0.075,0.017c0.024,0.006,0.049,0.011,0.073,0.017l29.435,39.541    v3.931c0,5.523,4.477,10,10,10s10-4.477,10-10v-3.963l28.995-39.424c0.01-0.002,0.02-0.004,0.031-0.006    c0.035-0.006,0.07-0.013,0.105-0.019c0.043-0.008,0.087-0.016,0.13-0.025c0.035-0.007,0.069-0.014,0.103-0.021    c0.042-0.009,0.084-0.018,0.126-0.027c0.037-0.008,0.073-0.017,0.11-0.025c0.04-0.009,0.079-0.019,0.119-0.029    c0.037-0.009,0.074-0.018,0.11-0.028c0.039-0.01,0.079-0.021,0.118-0.032c0.036-0.01,0.072-0.02,0.109-0.03    c0.041-0.012,0.081-0.024,0.122-0.036c0.034-0.01,0.068-0.02,0.102-0.031c0.046-0.014,0.092-0.03,0.138-0.045    c0.05-0.016,0.1-0.033,0.149-0.051c0.049-0.017,0.098-0.034,0.147-0.052c0.031-0.011,0.061-0.023,0.092-0.034    c0.042-0.016,0.083-0.031,0.124-0.047c0.034-0.013,0.067-0.027,0.101-0.04c0.038-0.016,0.077-0.031,0.115-0.047    c0.033-0.014,0.066-0.028,0.1-0.043c0.038-0.016,0.076-0.033,0.113-0.05c0.033-0.014,0.065-0.029,0.097-0.044    c0.038-0.017,0.076-0.035,0.114-0.053c0.032-0.015,0.064-0.03,0.096-0.046c0.038-0.018,0.076-0.037,0.113-0.056    c0.031-0.016,0.063-0.031,0.094-0.048c0.036-0.019,0.072-0.038,0.108-0.057c0.032-0.017,0.065-0.034,0.097-0.052    c0.039-0.022,0.078-0.044,0.117-0.065c0.027-0.015,0.054-0.03,0.081-0.046c0.064-0.037,0.128-0.075,0.192-0.113    c0.027-0.016,0.053-0.033,0.08-0.049c0.038-0.024,0.076-0.047,0.113-0.071c0.03-0.019,0.059-0.038,0.088-0.058    c0.035-0.023,0.07-0.046,0.105-0.069c0.03-0.02,0.059-0.04,0.089-0.061c0.032-0.022,0.065-0.044,0.097-0.067    c0.031-0.022,0.062-0.044,0.093-0.066c0.032-0.023,0.063-0.046,0.095-0.069c0.029-0.021,0.058-0.043,0.087-0.065    c0.033-0.025,0.065-0.05,0.098-0.075c0.028-0.022,0.056-0.043,0.084-0.065c0.033-0.026,0.066-0.053,0.099-0.08    c0.026-0.021,0.051-0.041,0.076-0.062c0.034-0.028,0.067-0.056,0.1-0.085c0.026-0.022,0.051-0.044,0.077-0.066    c0.034-0.03,0.068-0.06,0.102-0.09c0.037-0.033,0.074-0.067,0.111-0.1c0.04-0.037,0.08-0.074,0.12-0.112    c0.022-0.021,0.043-0.041,0.064-0.062c0.033-0.031,0.065-0.063,0.097-0.095c0.025-0.025,0.05-0.05,0.074-0.075    c0.029-0.029,0.058-0.059,0.087-0.089c0.024-0.025,0.047-0.05,0.071-0.075c0.028-0.03,0.057-0.06,0.085-0.091    c0.025-0.027,0.049-0.054,0.073-0.081c0.026-0.029,0.052-0.058,0.077-0.087c0.024-0.028,0.049-0.056,0.073-0.084    c0.027-0.031,0.053-0.063,0.08-0.094c0.022-0.026,0.044-0.053,0.066-0.079c0.028-0.034,0.055-0.068,0.082-0.102    c0.02-0.025,0.041-0.05,0.061-0.076c0.031-0.04,0.061-0.08,0.092-0.12c0.016-0.021,0.031-0.041,0.047-0.061    c0.044-0.06,0.088-0.12,0.131-0.18c0.016-0.023,0.032-0.046,0.048-0.069c0.028-0.04,0.056-0.08,0.083-0.12    c0.017-0.026,0.035-0.052,0.052-0.078c0.025-0.037,0.05-0.075,0.074-0.113c0.018-0.028,0.036-0.057,0.054-0.086    c0.023-0.036,0.046-0.072,0.068-0.108c0.018-0.03,0.036-0.06,0.054-0.09c0.022-0.036,0.043-0.073,0.065-0.109    c0.017-0.029,0.034-0.058,0.05-0.087c0.021-0.037,0.042-0.075,0.063-0.113c0.017-0.03,0.034-0.061,0.05-0.092    c0.021-0.038,0.041-0.076,0.061-0.115c0.015-0.029,0.031-0.058,0.046-0.088c0.022-0.043,0.043-0.086,0.064-0.128    c0.013-0.026,0.026-0.052,0.038-0.078c0.031-0.064,0.061-0.128,0.09-0.192c0.005-0.01,0.009-0.02,0.014-0.03    c0.029-0.065,0.058-0.13,0.085-0.195c0.012-0.027,0.023-0.055,0.034-0.083c0.018-0.044,0.036-0.088,0.054-0.133    c0.012-0.03,0.024-0.061,0.035-0.091c0.016-0.042,0.033-0.085,0.048-0.127c0.011-0.03,0.022-0.061,0.033-0.091    c0.015-0.043,0.031-0.086,0.046-0.129c0.011-0.032,0.022-0.064,0.033-0.096c0.014-0.042,0.028-0.084,0.041-0.126    c0.01-0.032,0.021-0.065,0.031-0.097c0.013-0.042,0.025-0.085,0.038-0.127c0.009-0.033,0.019-0.066,0.028-0.099    c0.013-0.046,0.025-0.093,0.038-0.139c0.008-0.028,0.015-0.057,0.023-0.085c0.014-0.056,0.028-0.112,0.041-0.169    c0.005-0.021,0.01-0.041,0.015-0.061c0.018-0.076,0.034-0.153,0.05-0.23c0.004-0.02,0.008-0.04,0.012-0.06    c0.012-0.057,0.023-0.115,0.033-0.172c0.006-0.03,0.01-0.06,0.015-0.09c0.008-0.048,0.016-0.097,0.024-0.145    c0.005-0.032,0.01-0.065,0.014-0.097c0.007-0.047,0.013-0.093,0.02-0.14c0.004-0.034,0.009-0.068,0.013-0.102    c0.006-0.046,0.011-0.093,0.016-0.14c0.003-0.033,0.007-0.066,0.01-0.099c0.005-0.049,0.009-0.097,0.013-0.146    c0.003-0.032,0.005-0.064,0.008-0.097c0.004-0.049,0.007-0.098,0.009-0.147c0.002-0.033,0.004-0.065,0.005-0.098    c0.003-0.055,0.005-0.11,0.006-0.165c0.001-0.026,0.002-0.051,0.003-0.077c0.002-0.082,0.003-0.164,0.003-0.246V185.195h232.522    l-125.17,125.167c-0.003,0.003-0.007,0.006-0.01,0.009s-0.006,0.007-0.009,0.01l-37.484,37.484    c-0.004,0.004-0.008,0.008-0.012,0.012c-0.004,0.004-0.008,0.008-0.012,0.013l-90.466,90.466    c-0.268,0.268-0.519,0.549-0.751,0.841c-0.077,0.097-0.153,0.196-0.227,0.295c-0.074,0.1-0.145,0.201-0.215,0.302    c-1.147,1.682-1.744,3.663-1.737,5.67c0.005,1.277,0.254,2.564,0.762,3.79c1.548,3.737,5.194,6.173,9.239,6.173H492V481.685z" fill="#FFFFFF"/>
	</g>
</g>
<g>
	<g>
		<path d="M470.05,269.592c-3.737-1.549-8.039-0.692-10.898,2.167l-130.82,130.82c-0.268,0.268-0.519,0.549-0.751,0.841    c-2.248,2.821-2.82,6.671-1.417,10.057c1.548,3.737,5.194,6.173,9.239,6.173h130.82c5.522,0,10-4.477,10-10V278.83    C476.223,274.786,473.786,271.14,470.05,269.592z M456.223,399.65h-96.678l96.678-96.678V399.65z" fill="#FFFFFF"/>
	</g>
</g>
<g>
	<g>
		<path d="M184.61,126.17c-0.13-0.64-0.32-1.27-0.57-1.87c-0.25-0.61-0.56-1.19-0.92-1.73c-0.37-0.55-0.79-1.06-1.25-1.52    c-0.46-0.46-0.97-0.88-1.52-1.24c-0.54-0.36-1.12-0.671-1.72-0.921c-0.61-0.25-1.24-0.44-1.87-0.57c-1.29-0.26-2.62-0.26-3.91,0    c-0.64,0.13-1.27,0.32-1.87,0.57c-0.61,0.25-1.19,0.56-1.73,0.921c-0.55,0.36-1.06,0.78-1.52,1.24c-0.46,0.46-0.88,0.97-1.24,1.52    c-0.36,0.54-0.67,1.12-0.92,1.73c-0.25,0.6-0.44,1.23-0.57,1.87s-0.2,1.3-0.2,1.95c0,0.65,0.07,1.31,0.2,1.95s0.32,1.27,0.57,1.88    c0.25,0.6,0.56,1.18,0.92,1.72c0.36,0.55,0.78,1.06,1.24,1.52c0.46,0.46,0.97,0.88,1.52,1.25c0.54,0.36,1.12,0.66,1.73,0.91    c0.6,0.25,1.23,0.45,1.87,0.58c0.64,0.13,1.3,0.19,1.95,0.19c0.65,0,1.31-0.059,1.96-0.19c0.63-0.13,1.26-0.33,1.87-0.58    c0.6-0.25,1.18-0.55,1.72-0.91c0.55-0.37,1.06-0.79,1.52-1.25c0.46-0.46,0.88-0.97,1.25-1.52c0.36-0.54,0.67-1.12,0.92-1.72    c0.25-0.61,0.44-1.24,0.57-1.88c0.13-0.64,0.19-1.3,0.19-1.95C184.8,127.47,184.74,126.811,184.61,126.17z" fill="#FFFFFF"/>
	</g>
</g>
<g>
</g>
<g>
</g>
<g>
</g>
<g>
</g>
<g>
</g>
<g>
</g>
<g>
</g>
<g>
</g>
<g>
</g>
<g>
</g>
<g>
</g>
<g>
</g>
<g>
</g>
<g>
</g>
<g>
</g>
</svg>
